<svg xmlns="http://www.w3.org/2000/svg" version="1.1" xmlns:xlink="http://www.w3.org/1999/xlink"
  xmlns:svgjs="http://svgjs.com/svgjs" width="32" height="32">
  <svg width="32" height="32" viewBox="0 0 32 32" fill="none" xmlns="http://www.w3.org/2000/svg">
    <path
      d="M16 19.9352C18.2091 19.9352 20 18.1346 20 15.9135C20 13.6925 18.2091 11.8919 16 11.8919C13.7909 11.8919 12 13.6925 12 15.9135C12 18.1346 13.7909 19.9352 16 19.9352Z"
      fill="#030104"></path>
    <path
      d="M28.555 6.07968C28.211 6.3622 27.793 6.55121 27.313 6.55121C26.211 6.55121 25.313 5.6554 25.313 4.54041C25.313 4.05379 25.508 3.62147 25.797 3.26756C23.578 1.54732 20.891 0.389091 17.961 0.0231243C17.859 1.03657 17.039 1.83788 16 1.83788C14.961 1.83788 14.129 1.02853 14.039 0C11.07 0.38507 8.367 1.5634 6.129 3.34598C6.383 3.6838 6.563 4.08395 6.563 4.54041C6.563 5.6554 5.672 6.55121 4.563 6.55121C4.118 6.55121 3.719 6.37828 3.387 6.12693C1.297 8.84454 0 12.2136 0 15.9135C0 24.7973 7.164 32 16 32C24.836 32 32 24.7973 32 15.9135C32 12.1785 30.688 8.79326 28.555 6.07968ZM16 23.9568C11.582 23.9568 8 20.3554 8 15.9135C8 13.6906 8.895 11.6838 10.344 10.227L16 4.54041L21.648 10.2189C23.102 11.6758 24 13.6906 24 15.9135C24 20.3594 20.418 23.9568 16 23.9568Z"
      fill="#030104"></path>
  </svg>
  <style>@media (prefers-color-scheme: light) { :root { filter: none; } }
    @media (prefers-color-scheme: dark) { :root { filter: invert(100%); } }
</style>
</svg>
